arm26_states
version=1
nRows=24
nColumns=17
inDegrees=yes

# SIMM Motion File Header:
name arm26_states
datacolumns 17
datarows 24
otherdata 1
range 0.22765348 0.24492603
endheader
time	/jointset/r_shoulder/r_shoulder_elev/value	/jointset/r_shoulder/r_shoulder_elev/speed	/jointset/r_elbow/r_elbow_flex/value	/jointset/r_elbow/r_elbow_flex/speed	/forceset/TRIlong/activation	/forceset/TRIlong/fiber_length	/forceset/TRIlat/activation	/forceset/TRIlat/fiber_length	/forceset/TRImed/activation	/forceset/TRImed/fiber_length	/forceset/BIClong/activation	/forceset/BIClong/fiber_length	/forceset/BICshort/activation	/forceset/BICshort/fiber_length	/forceset/BRA/activation	/forceset/BRA/fiber_length
      0.22765348	     -1.80310576	   -131.15086489	     33.73077986	   -153.40361791	     -0.00386826	      0.14900335	     -0.00386826	      0.08412774	     -0.00386826	      0.07909553	     -0.00386826	      0.13881383	     -0.00386826	      0.13734680	     -0.00386826	      0.08544660
      0.22845138	     -1.90761956	   -130.82122239	     33.60797470	   -154.41539405	     -0.00397099	      0.14889128	     -0.00397099	      0.08407830	     -0.00397099	      0.07904617	     -0.00397099	      0.13888526	     -0.00397099	      0.13742129	     -0.00397099	      0.08547401
      0.22924928	     -2.01187105	   -130.49413784	     33.48437033	   -155.40408358	     -0.00407372	      0.14877907	     -0.00407372	      0.08402850	     -0.00407372	      0.07899647	     -0.00407372	      0.13900068	     -0.00407372	      0.13749617	     -0.00407372	      0.08550161
      0.23004718	     -2.11586020	   -130.16309781	     33.35997759	   -156.39350660	     -0.00417645	      0.14866671	     -0.00417645	      0.08397837	     -0.00417645	      0.07894642	     -0.00417645	      0.13906953	     -0.00417645	      0.13757143	     -0.00417645	      0.08552940
      0.23084508	     -2.21958617	   -129.83508982	     33.23480431	   -157.35831712	     -0.00427918	      0.14855420	     -0.00427918	      0.08392789	     -0.00427918	      0.07889604	     -0.00427918	      0.13918743	     -0.00427918	      0.13764706	     -0.00427918	      0.08555739
      0.23164298	     -2.32304895	   -129.50295953	     33.10886123	   -158.32466675	     -0.00438191	      0.14844156	     -0.00438191	      0.08387708	     -0.00438191	      0.07884533	     -0.00438191	      0.13925438	     -0.00438191	      0.13772305	     -0.00438191	      0.08558557
      0.23244088	     -2.42624789	   -129.17432476	     32.98215668	   -159.26491919	     -0.00448464	      0.14832878	     -0.00448464	      0.08382594	     -0.00448464	      0.07879428	     -0.00448464	      0.13937727	     -0.00448464	      0.13779940	     -0.00448464	      0.08561393
      0.23323878	     -2.52918283	   -128.84103180	     32.85470072	   -160.20886011	     -0.00458737	      0.14821587	     -0.00458737	      0.08377446	     -0.00458737	      0.07874291	     -0.00458737	      0.13944010	     -0.00458737	      0.13787608	     -0.00458737	      0.08564248
      0.23403668	     -2.63185342	   -128.51179008	     32.72650259	   -161.12488489	     -0.00469010	      0.14810283	     -0.00469010	      0.08372267	     -0.00469010	      0.07869122	     -0.00469010	      0.13955832	     -0.00469010	      0.13795311	     -0.00469010	      0.08567121
      0.23483458	     -2.73425993	   -128.17860137	     32.59757380	   -162.04221762	     -0.00479283	      0.14798967	     -0.00479283	      0.08367055	     -0.00479283	      0.07863920	     -0.00479283	      0.13962515	     -0.00479283	      0.13803045	     -0.00479283	      0.08570013
      0.23563248	     -2.83640183	   -127.84936463	     32.46792275	   -162.93220167	     -0.00489556	      0.14787639	     -0.00489556	      0.08361811	     -0.00489556	      0.07858688	     -0.00489556	      0.13975620	     -0.00489556	      0.13810811	     -0.00489556	      0.08572922
      0.23643038	     -2.93827871	   -127.51451343	     32.33755830	   -163.82975892	     -0.00499829	      0.14776299	     -0.00499829	      0.08356537	     -0.00499829	      0.07853424	     -0.00499829	      0.13981264	     -0.00499829	      0.13818609	     -0.00499829	      0.08575850
      0.23722828	     -3.03989074	   -127.18475434	     32.20649123	   -164.69602280	     -0.00510102	      0.14764948	     -0.00510102	      0.08351231	     -0.00510102	      0.07848130	     -0.00510102	      0.13992104	     -0.00510102	      0.13826435	     -0.00510102	      0.08578795
      0.23792808	     -3.12879213	   -126.89345322	     32.09097231	   -165.45296948	     -0.00519111	      0.14754985	     -0.00519111	      0.08346553	     -0.00519111	      0.07843462	     -0.00519111	      0.13998684	     -0.00519111	      0.13833324	     -0.00519111	      0.08581387
      0.23862787	     -3.21749032	   -126.60452061	     31.97492944	   -166.19171852	     -0.00528121	      0.14745013	     -0.00528121	      0.08341852	     -0.00528121	      0.07838771	     -0.00528121	      0.14008034	     -0.00528121	      0.13840234	     -0.00528121	      0.08583967
      0.23932767	     -3.30598608	   -126.31417951	     31.85837203	   -166.92617172	     -0.00537131	      0.14735033	     -0.00537131	      0.08337128	     -0.00537131	      0.07834057	     -0.00537131	      0.14015022	     -0.00537131	      0.13847165	     -0.00537131	      0.08586552
      0.24002746	     -3.39427917	   -126.02612801	     31.74130580	   -167.64295355	     -0.00546141	      0.14725046	     -0.00546141	      0.08332381	     -0.00546141	      0.07829321	     -0.00546141	      0.14024704	     -0.00546141	      0.13854116	     -0.00546141	      0.08589147
      0.24072726	     -3.48237033	   -125.73642237	     31.62373993	   -168.35650642	     -0.00555151	      0.14715053	     -0.00555151	      0.08327613	     -0.00555151	      0.07824564	     -0.00555151	      0.14031397	     -0.00555151	      0.13861087	     -0.00555151	      0.08591755
      0.24142705	     -3.57025946	   -125.44941757	     31.50568049	   -169.05104610	     -0.00564161	      0.14705052	     -0.00564161	      0.08322822	     -0.00564161	      0.07819784	     -0.00564161	      0.14041192	     -0.00564161	      0.13868076	     -0.00564161	      0.08594374
      0.24212685	     -3.65794738	   -125.16070894	     31.38713684	   -169.74268910	     -0.00573171	      0.14695045	     -0.00573171	      0.08318010	     -0.00573171	      0.07814984	     -0.00573171	      0.14047779	     -0.00573171	      0.13875085	     -0.00573171	      0.08597006
      0.24282665	     -3.74543404	   -124.87493113	     31.26811521	   -170.41463081	     -0.00582181	      0.14685031	     -0.00582181	      0.08313177	     -0.00582181	      0.07810162	     -0.00582181	      0.14057734	     -0.00582181	      0.13882111	     -0.00582181	      0.08599650
      0.24352644	     -3.83272028	   -124.58734793	     31.14862493	   -171.08419513	     -0.00591190	      0.14675012	     -0.00591190	      0.08308324	     -0.00591190	      0.07805319	     -0.00591190	      0.14064169	     -0.00591190	      0.13889154	     -0.00591190	      0.08602306
      0.24422624	     -3.91980618	   -124.30295700	     31.02867247	   -171.73325475	     -0.00600200	      0.14664987	     -0.00600200	      0.08303449	     -0.00600200	      0.07800457	     -0.00600200	      0.14074263	     -0.00600200	      0.13896214	     -0.00600200	      0.08604973
      0.24492603	     -4.00669258	   -124.01667825	     30.90826716	   -172.38038653	     -0.00609210	      0.14654956	     -0.00609210	      0.08298555	     -0.00609210	      0.07795574	     -0.00609210	      0.14080563	     -0.00609210	      0.13903290	     -0.00609210	      0.08607652
